PathFileType	4	(X/Y/Z)	OpenSim_Sub03_CSStiffKnee_Gyro.trc
DataRate	CameraRate	NumFrames	NumMarkers	Units	OrigDataRate	OrigDataStartFrame	OrigNumFrames
100	100	13	8	m	100	1	3637
Frame#	Time	torso_imu_offset_imu	pelvis_imu_offset_imu	tibia_r_imu_offset_imu	femur_r_imu_offset_imu	tibia_l_imu_offset_imu	femur_l_imu_offset_imu	toes_r_imu_offset_imu	toes_l_imu_offset_imu
				X1	Y1	Z1	X2	Y2	Z2	X3	Y3	Z3	X4	Y4	Z4	X5	Y5	Z5	X6	Y6	Z6	X7	Y7	Z7	X8		Y8	Z8	

1	0	-0.04696600	-0.00117300	-0.01960600	-0.02300100	0.00331600	-0.01464500	0.00050500	0.00079800	0.01503100	-0.03306800	0.00392000	0.00811200	0.00988800	0.01222100	0.00046500	-0.01272200	0.00515000	0.00291000	-0.00092300	0.01089700	0.00625500	-0.00195500	0.01615300	-0.00118400
2	0.01000000	-0.04510400	0.00577900	-0.00725800	-0.01809700	0.00331500	-0.01126300	0.00232500	-0.00219200	0.00943900	-0.03118800	0.00626700	0.00454300	0.00111500	0.00935300	-0.00365200	-0.00366600	0.00302000	-0.00136400	-0.00629000	0.01059300	0.00680200	-0.00329400	0.01762100	0.00532600
3	0.02000000	-0.03978500	0.00249300	-0.00874700	-0.01785300	0.00117800	-0.00943500	0.00458500	0.00069400	0.01711300	-0.02737400	0.00924200	0.00481100	0.00303900	0.01012500	0.00218700	-0.00671600	0.01073400	0.00232400	-0.00192000	0.00497300	0.00823500	-0.00693600	0.01394600	-0.00328700
4	0.03000000	-0.03856600	0.00932000	-0.00963000	-0.01964600	0.00128800	-0.00695300	0.00232500	0.00048500	0.01699400	-0.02813300	0.00786900	0.00293600	0.00734900	0.00991000	-0.00010400	0.00089800	-0.00011000	-0.00280100	-0.00372400	0.00624600	0.01138100	-0.00356600	0.01492600	-0.00042600
5	0.04000000	-0.03758100	0.00988800	-0.01222800	-0.01964700	0.00128800	-0.00695500	0.00179000	0.00758100	0.01618600	-0.02686800	0.00702500	0.00306500	0.01077200	0.01113100	0.00107300	-0.00862700	0.00233100	-0.00306300	-0.00666100	0.00620800	0.00905300	-0.00296500	0.01648300	0.00051400
6	0.05000000	-0.03413400	0.00833400	-0.01144200	-0.01829900	0.00021900	-0.00519500	-0.00313900	0.00410400	0.01866900	-0.02616100	0.01011800	-0.00246200	0.00602500	0.01171800	0.00101800	-0.01197000	0.00003100	-0.00041200	-0.00559800	0.00709300	0.01072300	-0.00200200	0.01123600	-0.00038400
7	0.06000000	-0.03536800	0.01202400	-0.01398800	-0.02177000	0.00134200	-0.00656400	0.00315400	0.00667500	0.01577000	-0.02395600	0.01044700	-0.00411900	0.00365800	0.01166300	-0.00308900	-0.00740100	0.01016900	-0.00412800	-0.00478900	0.00535900	0.00971300	-0.00188200	0.01541700	0.00100600
8	0.07000000	-0.02980700	0.00974000	-0.01204700	-0.02245900	0.00251900	-0.00415000	-0.00855600	0.00525400	0.02544700	-0.02795100	0.00767100	-0.00071800	0.01060700	0.00852600	0.00053300	0.00413000	-0.00488100	-0.00527100	-0.00478900	0.00535900	0.00971300	-0.00794600	0.01427700	-0.00159100
9	0.08000000	-0.02779400	0.01139600	-0.00968100	-0.02764900	-0.00277100	-0.00172700	-0.01955400	0.01482600	0.01525400	-0.03353500	0.00775900	0.00064600	0.01165600	0.01004100	0.00168200	-0.00179900	-0.00133000	-0.00556800	-0.00379400	0.00581800	0.00757700	-0.00652100	0.01516700	0.00683900
10	0.09000000	-0.02601300	0.00679400	-0.00903600	-0.03076100	-0.00287900	-0.00760500	-0.01937400	-0.00040900	0.02055300	-0.03588200	0.00925300	-0.00326600	0.00900500	0.01365800	0.00392600	0.00068100	-0.00098600	-0.00471900	-0.00342100	0.01020300	0.00532700	-0.00517800	0.01370000	0.00033200
11	0.10000000	-0.02469400	0.01123600	-0.01112100	-0.03043200	-0.00282600	-0.00552000	-0.00951700	0.00921700	0.02315100	-0.03268500	0.00903300	0.00070100	0.00154900	0.00932900	0.00276500	-0.00636300	0.00179800	-0.00413200	-0.00129700	0.00650900	0.00850900	-0.00678900	0.01247000	0.00108500
12	0.11000000	-0.02503800	0.01262700	-0.01334500	-0.03787500	-0.00501700	-0.01087400	-0.00807700	0.00062600	0.02116100	-0.03091500	0.00597100	-0.00092500	0.00154900	0.00932900	0.00276500	-0.01092600	0.00492600	-0.00269600	-0.00342100	0.01020200	0.00532800	-0.00356800	0.01493300	-0.00041800
13	0.12000000	-0.02169800	0.01346500	-0.01135300	-0.03644300	-0.00389700	-0.00885800	-0.00947300	0.00407100	0.02070000	-0.02677800	0.00692500	0.00125500	0.00347900	0.00975400	0.00452500	-0.02278900	-0.00124100	-0.00101500	-0.00029900	0.01243100	0.00653200	-0.00517900	0.01370300	0.00033500
